<?xml version="1.0" standalone="no"?>
<!DOCTYPE svg PUBLIC "-//W3C//DTD SVG 20010904//EN"
 "http://www.w3.org/TR/2001/REC-SVG-20010904/DTD/svg10.dtd">
<svg version="1.0" xmlns="http://www.w3.org/2000/svg"
 width="512.000000pt" height="512.000000pt" viewBox="0 0 512.000000 512.000000"
 preserveAspectRatio="xMidYMid meet">
<metadata>
Created by potrace 1.14, written by Peter Selinger 2001-2017
</metadata>
<g transform="translate(0.000000,512.000000) scale(0.100000,-0.100000)"
fill="#000000" stroke="none">
<path d="M460 2559 l0 -2561 998 6 c1121 7 1475 13 1767 31 55 3 193 17 205
20 3 1 23 5 45 9 116 23 283 78 374 124 229 114 441 308 578 527 112 180 196
422 221 640 9 78 9 324 0 395 -50 394 -276 736 -626 952 l-61 37 93 93 c104
105 185 221 250 359 43 89 87 224 100 299 3 19 8 46 12 60 11 46 13 324 3 395
-45 311 -204 601 -444 811 -97 84 -161 127 -273 184 -175 89 -339 132 -592
155 -36 3 -85 8 -110 11 -25 3 -606 8 -1292 9 l-1248 4 0 -2560z m2404 1446
c241 -36 343 -141 350 -362 8 -234 -122 -378 -379 -418 -22 -4 -286 -9 -587
-12 l-548 -5 0 407 0 408 563 -6 c309 -3 579 -8 601 -12z m-259 -1909 c326
-11 437 -27 543 -79 162 -77 245 -231 237 -437 -6 -145 -32 -221 -105 -302
-74 -83 -170 -126 -320 -143 -104 -12 -610 -18 -1167 -15 l-93 0 0 489 0 490
28 3 c47 5 678 1 877 -6z"/>
</g>
</svg>
