<svg width="20" height="18" viewBox="0 0 20 18" fill="none" xmlns="http://www.w3.org/2000/svg">
<path d="M13.4703 16.0418C14.5202 16.0389 15.5262 15.6538 16.2685 14.9707C17.0109 14.2875 17.4294 13.3618 17.4325 12.3957V5.1043C17.4294 4.13818 17.0109 3.21246 16.2685 2.52931C15.5262 1.84616 14.5202 1.46109 13.4703 1.4582H5.5468C4.49693 1.46109 3.49095 1.84616 2.74858 2.52931C2.0062 3.21246 1.58775 4.13818 1.58462 5.1043V12.3957C1.58775 13.3618 2.0062 14.2875 2.74858 14.9707C3.49095 15.6538 4.49693 16.0389 5.5468 16.0418H13.4703ZM13.4703 17.5H5.5468C2.496 17.5 0 15.2031 0 12.3957V5.1043C0 2.29688 2.496 0 5.5468 0H13.4703C16.5211 0 19.0171 2.29688 19.0171 5.1043V12.3957C19.0171 15.2031 16.5211 17.5 13.4703 17.5Z" fill="black"/>
<path d="M14.6589 12.3955C14.4238 12.3955 14.194 12.4597 13.9985 12.5798C13.8031 12.7 13.6507 12.8708 13.5608 13.0707C13.4708 13.2706 13.4473 13.4905 13.4931 13.7026C13.539 13.9148 13.6522 14.1097 13.8184 14.2627C13.9847 14.4156 14.1964 14.5198 14.427 14.562C14.6576 14.6042 14.8965 14.5825 15.1137 14.4998C15.3309 14.417 15.5165 14.2768 15.6471 14.0969C15.7777 13.917 15.8474 13.7056 15.8474 13.4893C15.8478 13.3455 15.8173 13.2032 15.7577 13.0703C15.698 12.9375 15.6105 12.8168 15.5001 12.7152C15.3896 12.6135 15.2585 12.533 15.1141 12.4781C14.9698 12.4233 14.8151 12.3952 14.6589 12.3955ZM9.50855 11.6666C10.1355 11.6666 10.7483 11.4955 11.2695 11.175C11.7908 10.8545 12.197 10.399 12.4369 9.86601C12.6768 9.33304 12.7396 8.74657 12.6173 8.18077C12.495 7.61496 12.1931 7.09524 11.7498 6.68732C11.3066 6.2794 10.7418 6.0016 10.1269 5.88905C9.51207 5.77651 8.87476 5.83427 8.29558 6.05504C7.7164 6.2758 7.22136 6.64965 6.87308 7.12932C6.52479 7.60898 6.33889 8.17292 6.33889 8.7498C6.33979 9.52313 6.67403 10.2646 7.26826 10.8114C7.86249 11.3582 8.66818 11.6658 9.50855 11.6666ZM9.50855 13.1248C8.56824 13.1248 7.64905 12.8682 6.86722 12.3875C6.08538 11.9068 5.47601 11.2235 5.11617 10.424C4.75633 9.62462 4.66218 8.74495 4.84563 7.89628C5.02907 7.04762 5.48187 6.26807 6.14677 5.65621C6.81167 5.04436 7.6588 4.62768 8.58104 4.45887C9.50328 4.29006 10.4592 4.3767 11.3279 4.70783C12.1967 5.03896 12.9392 5.59972 13.4616 6.31918C13.984 7.03865 14.2628 7.88451 14.2628 8.7498C14.2628 9.91013 13.7619 11.0229 12.8703 11.8434C11.9787 12.6639 10.7695 13.1248 9.50855 13.1248Z" fill="black"/>
</svg>
