<svg width="21" height="22" viewBox="0 0 21 22" fill="none" xmlns="http://www.w3.org/2000/svg">
<path d="M3.04688 3.59375C5.10938 1.53125 7.59375 0.5 10.5 0.5C13.4062 0.5 15.875 1.53125 17.9062 3.59375C19.9688 5.625 21 8.09375 21 11C21 13.9062 19.9688 16.3906 17.9062 18.4531C15.875 20.4844 13.4062 21.5 10.5 21.5C9.4375 21.5 8.4375 21.3594 7.5 21.0781C8.0625 20.0781 8.42188 19.3281 8.57812 18.8281L9.32812 15.9219C9.79688 16.7969 10.6406 17.2344 11.8594 17.2344C13.5469 17.2344 14.9062 16.5625 15.9375 15.2188C17 13.875 17.5312 12.1562 17.5312 10.0625C17.5312 8.4375 16.9062 7.03125 15.6562 5.84375C14.4062 4.625 12.8125 4.01562 10.875 4.01562C8.5625 4.01562 6.73438 4.70313 5.39062 6.07812C4.04688 7.42188 3.375 8.92188 3.375 10.5781C3.375 12.6719 4.09375 14.0156 5.53125 14.6094C5.8125 14.7344 6 14.6406 6.09375 14.3281C6.09375 14.2656 6.10938 14.125 6.14062 13.9062C6.20312 13.6875 6.25 13.5469 6.28125 13.4844C6.34375 13.2969 6.29688 13.1094 6.14062 12.9219C5.67188 12.3594 5.4375 11.6719 5.4375 10.8594C5.4375 9.48438 5.90625 8.3125 6.84375 7.34375C7.8125 6.34375 9.0625 5.84375 10.5938 5.84375C11.9688 5.84375 13.0469 6.21875 13.8281 6.96875C14.6094 7.6875 15 8.64062 15 9.82812C15 11.3906 14.6875 12.7188 14.0625 13.8125C13.4375 14.875 12.6406 15.4062 11.6719 15.4062C11.1094 15.4062 10.6562 15.2188 10.3125 14.8438C9.96875 14.4375 9.85938 13.9531 9.98438 13.3906C10.0469 13.0781 10.1562 12.6562 10.3125 12.125C10.5 11.5938 10.6406 11.125 10.7344 10.7188C10.8594 10.3125 10.9219 9.96875 10.9219 9.6875C10.9219 9.25 10.7969 8.875 10.5469 8.5625C10.2969 8.25 9.95312 8.09375 9.51562 8.09375C8.95312 8.09375 8.46875 8.35938 8.0625 8.89062C7.6875 9.39062 7.5 10.0312 7.5 10.8125C7.5 11.0938 7.53125 11.375 7.59375 11.6562C7.65625 11.9375 7.71875 12.1562 7.78125 12.3125L7.82812 12.5C7.04688 15.75 6.59375 17.6562 6.46875 18.2188C6.28125 18.9688 6.21875 19.7656 6.28125 20.6094C4.40625 19.7656 2.89062 18.4844 1.73438 16.7656C0.578125 15.0469 0 13.125 0 11C0 8.09375 1.01562 5.625 3.04688 3.59375Z" fill="black"/>
</svg>
